<?xml version="1.0" encoding="utf-8"?>
<!-- Generator: Adobe Illustrator 22.0.1, SVG Export Plug-In . SVG Version: 6.00 Build 0)  -->
<svg version="1.1" id="Capa_1" xmlns="http://www.w3.org/2000/svg" xmlns:xlink="http://www.w3.org/1999/xlink" x="0px" y="0px"
	 viewBox="0 0 204 91" style="enable-background:new 0 0 204 91;" xml:space="preserve">
<style type="text/css">
	.st0{enable-background:new    ;}
	.st1{fill:#FFFFFF;}
</style>
<g>
	<g class="st0">
		<path class="st1" d="M76.8,9h7.9v17.4h10.6v6.2H76.8V9z"/>
		<path class="st1" d="M114,28.4H105l-1.6,4.1h-8.1L105.7,9h7.8l10.3,23.5h-8.2L114,28.4z M111.8,22.7l-2.3-5.9l-2.3,5.9H111.8z"/>
		<path class="st1" d="M135.1,26.6H133v5.9H125V9h11.3c2.2,0,4.1,0.4,5.7,1.1s2.9,1.7,3.7,3.1c0.9,1.3,1.3,2.9,1.3,4.7
			c0,1.7-0.4,3.2-1.1,4.4s-1.9,2.3-3.3,3l4.9,7.3h-8.5L135.1,26.6z M138.3,15.8c-0.5-0.5-1.3-0.7-2.4-0.7H133v5.5h2.9
			c1.1,0,1.9-0.2,2.4-0.7s0.8-1.2,0.8-2C139.1,17,138.8,16.3,138.3,15.8z"/>
		<path class="st1" d="M160.2,26.6H158v5.9h-7.9V9h11.3c2.2,0,4.1,0.4,5.7,1.1s2.9,1.7,3.7,3.1c0.9,1.3,1.3,2.9,1.3,4.7
			c0,1.7-0.4,3.2-1.1,4.4s-1.9,2.3-3.3,3l4.9,7.3h-8.5L160.2,26.6z M163.4,15.8c-0.5-0.5-1.3-0.7-2.4-0.7H158v5.5h2.9
			c1.1,0,1.9-0.2,2.4-0.7s0.8-1.2,0.8-2C164.2,17,163.9,16.3,163.4,15.8z"/>
		<path class="st1" d="M188.8,24v8.5h-7.9v-8.6L172,9h8.4l4.8,8.1L190,9h7.7L188.8,24z"/>
	</g>
	<g class="st0">
		<path class="st1" d="M28.9,63.8l-0.1-10.7l-5.1,8.6h-3.5l-5.1-8.2v10.4H7.8V40.3h6.5L22,52.8l7.5-12.5H36l0.1,23.5H28.9z"/>
		<path class="st1" d="M56,59.7H47l-1.6,4.1h-8.1l10.3-23.5h7.8l10.3,23.5h-8.2L56,59.7z M53.8,54l-2.3-5.9L49.2,54H53.8z"/>
		<path class="st1" d="M77.1,57.9H75v5.9H67V40.3h11.3c2.2,0,4.1,0.4,5.7,1.1c1.6,0.7,2.9,1.7,3.7,3.1c0.9,1.3,1.3,2.9,1.3,4.7
			c0,1.7-0.4,3.2-1.1,4.4c-0.8,1.3-1.9,2.3-3.3,3l4.9,7.3h-8.5L77.1,57.9z M80.3,47.1c-0.5-0.5-1.3-0.7-2.4-0.7H75v5.5h2.9
			c1.1,0,1.9-0.2,2.4-0.7s0.8-1.2,0.8-2C81.1,48.3,80.8,47.6,80.3,47.1z"/>
		<path class="st1" d="M96.9,46.4H90v-6.2h21.7v6.2h-6.9v17.4h-7.9V46.4z"/>
		<path class="st1" d="M113.8,40.3h7.9v23.5h-7.9V40.3z"/>
		<path class="st1" d="M148.7,40.3v23.5h-6.5l-8.9-10.7v10.7h-7.7V40.3h6.5l8.9,10.7V40.3H148.7z"/>
		<path class="st1" d="M172.2,57.8v6h-19.6V40.3h19.1v6h-11.3V49h10v5.7h-10v3.1H172.2z"/>
		<path class="st1" d="M196,57.6v6.2h-21.6v-4.9l10.8-12.5h-10.4v-6.2h20.8v4.9l-10.8,12.5H196z"/>
	</g>
	<g class="st0">
		<path class="st1" d="M12.6,77c0.3,0.3,0.4,0.7,0.4,1.2c0,0.6-0.2,1.1-0.7,1.4c-0.4,0.3-1.1,0.5-2,0.5H7.1v-7h3
			c0.8,0,1.4,0.2,1.8,0.5c0.4,0.3,0.6,0.8,0.6,1.3c0,0.4-0.1,0.7-0.3,1c-0.2,0.3-0.5,0.5-0.8,0.6C12,76.5,12.3,76.7,12.6,77z
			 M7.8,73.6v2.6h2.2c0.6,0,1-0.1,1.3-0.3c0.3-0.2,0.5-0.5,0.5-1c0-0.4-0.2-0.7-0.5-1c-0.3-0.2-0.7-0.3-1.3-0.3H7.8z M11.7,79.1
			c0.3-0.2,0.5-0.6,0.5-1c0-0.9-0.6-1.3-1.9-1.3H7.8v2.6h2.5C10.9,79.4,11.4,79.3,11.7,79.1z"/>
		<path class="st1" d="M14.7,73h0.7v6.4h3.9V80h-4.7V73z"/>
		<path class="st1" d="M21.6,79.6c-0.6-0.3-1-0.7-1.3-1.3c-0.3-0.5-0.5-1.2-0.5-1.8c0-0.7,0.2-1.3,0.5-1.8c0.3-0.5,0.8-1,1.3-1.3
			c0.6-0.3,1.2-0.5,1.9-0.5c0.7,0,1.3,0.2,1.9,0.5c0.6,0.3,1,0.7,1.3,1.3c0.3,0.5,0.5,1.2,0.5,1.8c0,0.7-0.2,1.3-0.5,1.8
			c-0.3,0.5-0.8,1-1.3,1.3c-0.6,0.3-1.2,0.5-1.9,0.5C22.8,80.1,22.2,79.9,21.6,79.6z M25,79c0.4-0.3,0.8-0.6,1.1-1
			c0.3-0.4,0.4-0.9,0.4-1.5c0-0.6-0.1-1-0.4-1.5c-0.3-0.4-0.6-0.8-1.1-1s-1-0.4-1.5-0.4c-0.6,0-1.1,0.1-1.5,0.4
			c-0.5,0.3-0.8,0.6-1.1,1c-0.3,0.4-0.4,0.9-0.4,1.5c0,0.5,0.1,1,0.4,1.5c0.3,0.4,0.6,0.8,1.1,1c0.5,0.3,1,0.4,1.5,0.4
			C24.1,79.4,24.6,79.3,25,79z"/>
		<path class="st1" d="M33.9,76.5h0.7v2.7c-0.3,0.3-0.7,0.5-1.2,0.7C33,80,32.5,80.1,32,80.1c-0.7,0-1.3-0.2-1.9-0.5
			c-0.6-0.3-1-0.7-1.3-1.3c-0.3-0.5-0.5-1.2-0.5-1.8c0-0.7,0.2-1.3,0.5-1.8c0.3-0.5,0.8-1,1.3-1.3c0.6-0.3,1.2-0.5,1.9-0.5
			c0.5,0,1,0.1,1.5,0.3c0.4,0.2,0.8,0.4,1.1,0.8l-0.5,0.5c-0.6-0.6-1.3-0.8-2.1-0.8c-0.6,0-1.1,0.1-1.5,0.4c-0.5,0.3-0.8,0.6-1.1,1
			C29.1,75.5,29,76,29,76.5c0,0.5,0.1,1,0.4,1.5c0.3,0.4,0.6,0.8,1.1,1c0.5,0.3,1,0.4,1.5,0.4c0.7,0,1.3-0.2,1.8-0.5V76.5z"/>
		<path class="st1" d="M39.3,73h2.9c0.7,0,1.4,0.1,2,0.4c0.6,0.3,1,0.7,1.3,1.2c0.3,0.5,0.5,1.1,0.5,1.8c0,0.7-0.2,1.3-0.5,1.8
			c-0.3,0.5-0.8,0.9-1.3,1.2c-0.6,0.3-1.2,0.4-2,0.4h-2.9V73z M42.1,79.4c0.6,0,1.2-0.1,1.6-0.4c0.5-0.2,0.8-0.6,1.1-1
			c0.3-0.4,0.4-0.9,0.4-1.5c0-0.6-0.1-1.1-0.4-1.5c-0.3-0.4-0.6-0.8-1.1-1c-0.5-0.2-1-0.4-1.6-0.4h-2.1v5.8H42.1z"/>
		<path class="st1" d="M52.6,79.4V80h-5v-7h4.8v0.6h-4.1v2.5H52v0.6h-3.6v2.6H52.6z"/>
		<path class="st1" d="M57,73h2.9c0.7,0,1.4,0.1,2,0.4c0.6,0.3,1,0.7,1.3,1.2c0.3,0.5,0.5,1.1,0.5,1.8c0,0.7-0.2,1.3-0.5,1.8
			c-0.3,0.5-0.8,0.9-1.3,1.2c-0.6,0.3-1.2,0.4-2,0.4H57V73z M59.8,79.4c0.6,0,1.2-0.1,1.6-0.4c0.5-0.2,0.8-0.6,1.1-1
			c0.3-0.4,0.4-0.9,0.4-1.5c0-0.6-0.1-1.1-0.4-1.5c-0.3-0.4-0.6-0.8-1.1-1c-0.5-0.2-1-0.4-1.6-0.4h-2.1v5.8H59.8z"/>
		<path class="st1" d="M65.3,73h0.7v7h-0.7V73z"/>
		<path class="st1" d="M68.8,79.8c-0.5-0.2-0.9-0.4-1.1-0.7l0.3-0.6c0.3,0.3,0.6,0.5,1,0.6c0.4,0.2,0.9,0.2,1.3,0.2
			c0.6,0,1.1-0.1,1.4-0.3c0.3-0.2,0.5-0.5,0.5-0.9c0-0.3-0.1-0.5-0.3-0.7c-0.2-0.2-0.4-0.3-0.6-0.4c-0.2-0.1-0.6-0.2-1-0.3
			c-0.5-0.1-1-0.3-1.3-0.4c-0.3-0.1-0.6-0.3-0.8-0.6c-0.2-0.3-0.3-0.6-0.3-1c0-0.4,0.1-0.7,0.3-1c0.2-0.3,0.5-0.5,0.9-0.7
			c0.4-0.2,0.9-0.3,1.4-0.3c0.4,0,0.8,0.1,1.2,0.2c0.4,0.1,0.7,0.3,1,0.5l-0.3,0.6c-0.3-0.2-0.6-0.3-0.9-0.4c-0.3-0.1-0.7-0.1-1-0.1
			c-0.6,0-1.1,0.1-1.4,0.4c-0.3,0.2-0.5,0.5-0.5,0.9c0,0.3,0.1,0.5,0.3,0.7c0.2,0.2,0.4,0.3,0.6,0.4c0.3,0.1,0.6,0.2,1,0.3
			c0.5,0.1,0.9,0.3,1.3,0.4c0.3,0.1,0.6,0.3,0.8,0.6c0.2,0.3,0.3,0.6,0.3,1c0,0.4-0.1,0.7-0.3,1c-0.2,0.3-0.5,0.5-0.9,0.7
			c-0.4,0.2-0.9,0.3-1.5,0.3C69.8,80.1,69.3,80,68.8,79.8z"/>
		<path class="st1" d="M79.5,79.4V80h-5v-7h4.8v0.6h-4.1v2.5h3.6v0.6h-3.6v2.6H79.5z"/>
		<path class="st1" d="M87.2,73v7h-0.6L82,74.3V80h-0.7v-7h0.6l4.5,5.7V73H87.2z M84.5,72.2c-0.1-0.1-0.3-0.2-0.4-0.3
			c-0.1-0.1-0.2-0.2-0.3-0.2c-0.1,0-0.1-0.1-0.2-0.1c-0.2,0-0.3,0.1-0.4,0.2c-0.1,0.1-0.1,0.3-0.2,0.5h-0.4c0-0.3,0.1-0.6,0.3-0.8
			c0.2-0.2,0.4-0.3,0.6-0.3c0.2,0,0.3,0,0.4,0.1c0.1,0.1,0.3,0.2,0.4,0.3c0.1,0.1,0.2,0.2,0.3,0.2c0.1,0,0.2,0.1,0.2,0.1
			c0.1,0,0.3-0.1,0.4-0.2c0.1-0.1,0.1-0.3,0.2-0.5h0.4c0,0.3-0.1,0.6-0.3,0.8c-0.2,0.2-0.4,0.3-0.6,0.3
			C84.7,72.3,84.6,72.3,84.5,72.2z"/>
		<path class="st1" d="M90.6,79.6c-0.6-0.3-1-0.7-1.3-1.3c-0.3-0.5-0.5-1.2-0.5-1.8c0-0.7,0.2-1.3,0.5-1.8c0.3-0.5,0.8-1,1.3-1.3
			c0.6-0.3,1.2-0.5,1.9-0.5c0.7,0,1.3,0.2,1.9,0.5c0.6,0.3,1,0.7,1.3,1.3c0.3,0.5,0.5,1.2,0.5,1.8c0,0.7-0.2,1.3-0.5,1.8
			c-0.3,0.5-0.8,1-1.3,1.3c-0.6,0.3-1.2,0.5-1.9,0.5C91.8,80.1,91.2,79.9,90.6,79.6z M94,79c0.4-0.3,0.8-0.6,1.1-1
			c0.3-0.4,0.4-0.9,0.4-1.5c0-0.6-0.1-1-0.4-1.5c-0.3-0.4-0.6-0.8-1.1-1s-1-0.4-1.5-0.4c-0.6,0-1.1,0.1-1.5,0.4
			c-0.5,0.3-0.8,0.6-1.1,1c-0.3,0.4-0.4,0.9-0.4,1.5c0,0.5,0.1,1,0.4,1.5c0.3,0.4,0.6,0.8,1.1,1c0.5,0.3,1,0.4,1.5,0.4
			C93.1,79.4,93.6,79.3,94,79z"/>
		<path class="st1" d="M102.9,77.6V80h-0.7v-2.4L99.4,73h0.8l2.4,4l2.4-4h0.7L102.9,77.6z"/>
		<path class="st1" d="M114.3,73.6c0.5,0.4,0.8,1,0.8,1.8c0,0.8-0.3,1.3-0.8,1.8c-0.5,0.4-1.2,0.6-2.1,0.6h-1.9V80h-0.7v-7h2.6
			C113.1,73,113.8,73.2,114.3,73.6z M113.8,76.7c0.4-0.3,0.6-0.7,0.6-1.3c0-0.6-0.2-1-0.6-1.3c-0.4-0.3-0.9-0.5-1.6-0.5h-1.9v3.5
			h1.9C112.9,77.1,113.4,77,113.8,76.7z"/>
		<path class="st1" d="M121.5,80l-1.6-2.3c-0.2,0-0.4,0-0.6,0h-1.9V80h-0.7v-7h2.6c0.9,0,1.6,0.2,2.1,0.6c0.5,0.4,0.8,1,0.8,1.8
			c0,0.5-0.1,1-0.4,1.4c-0.3,0.4-0.7,0.7-1.2,0.8l1.7,2.4H121.5z M120.9,76.7c0.4-0.3,0.6-0.7,0.6-1.3c0-0.6-0.2-1-0.6-1.3
			c-0.4-0.3-0.9-0.5-1.6-0.5h-1.9v3.5h1.9C120,77.2,120.5,77,120.9,76.7z"/>
		<path class="st1" d="M125.1,79.6c-0.6-0.3-1-0.7-1.3-1.3c-0.3-0.5-0.5-1.2-0.5-1.8c0-0.7,0.2-1.3,0.5-1.8c0.3-0.5,0.8-1,1.3-1.3
			c0.6-0.3,1.2-0.5,1.9-0.5c0.7,0,1.3,0.2,1.9,0.5c0.6,0.3,1,0.7,1.3,1.3c0.3,0.5,0.5,1.2,0.5,1.8c0,0.7-0.2,1.3-0.5,1.8
			c-0.3,0.5-0.8,1-1.3,1.3c-0.6,0.3-1.2,0.5-1.9,0.5C126.3,80.1,125.7,79.9,125.1,79.6z M128.5,79c0.4-0.3,0.8-0.6,1.1-1
			c0.3-0.4,0.4-0.9,0.4-1.5c0-0.6-0.1-1-0.4-1.5c-0.3-0.4-0.6-0.8-1.1-1c-0.4-0.3-1-0.4-1.5-0.4c-0.6,0-1.1,0.1-1.5,0.4
			c-0.5,0.3-0.8,0.6-1.1,1c-0.3,0.4-0.4,0.9-0.4,1.5c0,0.5,0.1,1,0.4,1.5c0.3,0.4,0.6,0.8,1.1,1c0.5,0.3,1,0.4,1.5,0.4
			C127.6,79.4,128.1,79.3,128.5,79z"/>
		<path class="st1" d="M137.4,76.5h0.7v2.7c-0.3,0.3-0.7,0.5-1.2,0.7c-0.4,0.2-0.9,0.2-1.4,0.2c-0.7,0-1.3-0.2-1.9-0.5
			c-0.6-0.3-1-0.7-1.3-1.3c-0.3-0.5-0.5-1.2-0.5-1.8c0-0.7,0.2-1.3,0.5-1.8c0.3-0.5,0.8-1,1.3-1.3c0.6-0.3,1.2-0.5,1.9-0.5
			c0.5,0,1,0.1,1.5,0.3c0.4,0.2,0.8,0.4,1.1,0.8l-0.5,0.5c-0.6-0.6-1.3-0.8-2.1-0.8c-0.6,0-1.1,0.1-1.5,0.4c-0.5,0.3-0.8,0.6-1.1,1
			c-0.3,0.4-0.4,0.9-0.4,1.5c0,0.5,0.1,1,0.4,1.5s0.6,0.8,1.1,1c0.5,0.3,1,0.4,1.5,0.4c0.7,0,1.3-0.2,1.8-0.5V76.5z"/>
		<path class="st1" d="M145,80l-1.6-2.3c-0.2,0-0.4,0-0.6,0h-1.9V80h-0.7v-7h2.6c0.9,0,1.6,0.2,2.1,0.6c0.5,0.4,0.8,1,0.8,1.8
			c0,0.5-0.1,1-0.4,1.4c-0.3,0.4-0.7,0.7-1.2,0.8l1.7,2.4H145z M144.4,76.7c0.4-0.3,0.6-0.7,0.6-1.3c0-0.6-0.2-1-0.6-1.3
			s-0.9-0.5-1.6-0.5h-1.9v3.5h1.9C143.5,77.2,144,77,144.4,76.7z"/>
		<path class="st1" d="M151.9,78.1h-3.9l-0.8,1.9h-0.8l3.2-7h0.7l3.2,7h-0.8L151.9,78.1z M151.6,77.5l-1.7-3.8l-1.7,3.8H151.6z"/>
		<path class="st1" d="M162,73v7h-0.7v-5.6l-2.8,4.7h-0.4l-2.8-4.7V80h-0.7v-7h0.6l3.1,5.2l3-5.2H162z"/>
		<path class="st1" d="M168.7,78.1h-3.9l-0.8,1.9h-0.8l3.2-7h0.7l3.2,7h-0.8L168.7,78.1z M168.4,77.5l-1.7-3.8l-1.7,3.8H168.4z"/>
		<path class="st1" d="M172.6,79.6c-0.6-0.3-1-0.7-1.3-1.3c-0.3-0.5-0.5-1.2-0.5-1.8c0-0.7,0.2-1.3,0.5-1.8c0.3-0.5,0.8-1,1.3-1.3
			c0.6-0.3,1.2-0.5,1.9-0.5c0.5,0,1,0.1,1.4,0.3c0.4,0.2,0.8,0.4,1.1,0.8l-0.5,0.5c-0.6-0.6-1.2-0.8-2.1-0.8c-0.6,0-1.1,0.1-1.5,0.4
			c-0.5,0.3-0.8,0.6-1.1,1c-0.3,0.4-0.4,0.9-0.4,1.5c0,0.5,0.1,1,0.4,1.5c0.3,0.4,0.6,0.8,1.1,1c0.5,0.3,1,0.4,1.5,0.4
			c0.8,0,1.5-0.3,2.1-0.8l0.5,0.5c-0.3,0.3-0.7,0.6-1.1,0.8c-0.4,0.2-0.9,0.3-1.5,0.3C173.8,80.1,173.1,79.9,172.6,79.6z"/>
		<path class="st1" d="M178.6,73h0.7v7h-0.7V73z"/>
		<path class="st1" d="M182.9,79.6c-0.6-0.3-1-0.7-1.3-1.3c-0.3-0.5-0.5-1.2-0.5-1.8c0-0.7,0.2-1.3,0.5-1.8c0.3-0.5,0.8-1,1.3-1.3
			c0.6-0.3,1.2-0.5,1.9-0.5c0.7,0,1.3,0.2,1.9,0.5c0.6,0.3,1,0.7,1.3,1.3c0.3,0.5,0.5,1.2,0.5,1.8c0,0.7-0.2,1.3-0.5,1.8
			c-0.3,0.5-0.8,1-1.3,1.3c-0.6,0.3-1.2,0.5-1.9,0.5C184.1,80.1,183.4,79.9,182.9,79.6z M186.3,79c0.4-0.3,0.8-0.6,1.1-1
			c0.3-0.4,0.4-0.9,0.4-1.5c0-0.6-0.1-1-0.4-1.5c-0.3-0.4-0.6-0.8-1.1-1c-0.4-0.3-1-0.4-1.5-0.4c-0.6,0-1.1,0.1-1.5,0.4
			c-0.5,0.3-0.8,0.6-1.1,1c-0.3,0.4-0.4,0.9-0.4,1.5c0,0.5,0.1,1,0.4,1.5c0.3,0.4,0.6,0.8,1.1,1c0.5,0.3,1,0.4,1.5,0.4
			C185.3,79.4,185.8,79.3,186.3,79z M185.5,71.2h1l-1.6,1.2h-0.7L185.5,71.2z"/>
		<path class="st1" d="M196,73v7h-0.6l-4.5-5.7V80h-0.7v-7h0.6l4.5,5.7V73H196z"/>
	</g>
</g>
</svg>
